mtllib model_5.mtl
o model_5
v 0.4156237840652466 -0.745845377445221 1.5254145860671997 
v 0.5573036670684814 -0.7464149594306946 1.564430594444275 
v 0.22193486988544464 -0.7455081343650818 1.5100281238555908 
v 0.2802208960056305 -0.7462051510810852 1.5627820491790771 
v 0.00044799200259149075 -0.7453882694244385 1.507830023765564 
v 0.00044799200259149075 -0.7461152076721191 1.562232494354248 
v 0.3313332498073578 -0.7470070123672485 1.6226797103881836 
v 0.00044799200259149075 -0.7469320893287659 1.6226797103881836 
v -0.2802216112613678 -0.7462051510810852 1.5627820491790771 
v -0.3313339650630951 -0.7470070123672485 1.6226797103881836 
v -0.5573043823242188 -0.7464149594306946 1.564430594444275 
v -0.663115918636322 -0.747179388999939 1.6226797103881836 
v 0.6631152033805847 -0.747179388999939 1.6226797103881836 
v -0.4156245291233063 -0.745845377445221 1.5254145860671997 
v -0.22193558514118195 -0.7455081343650818 1.5100281238555908 
v 0.6631152033805847 -0.747179388999939 1.6226797103881836 
v 0.7509925961494446 -0.7481311559677124 1.6946667432785034 
v 0.3313332498073578 -0.7470070123672485 1.6226797103881836 
v 0.3752719461917877 -0.7479812502861023 1.6946667432785034 
v 0.00044799200259149075 -0.7469320893287659 1.6226797103881836 
v 0.00044799200259149075 -0.7479212880134583 1.6946667432785034 
v -0.3313339650630951 -0.7470070123672485 1.6226797103881836 
v -0.375272661447525 -0.7479812502861023 1.6946667432785034 
v -0.663115918636322 -0.747179388999939 1.6226797103881836 
v -0.7509933114051819 -0.7481311559677124 1.6946667432785034 
v -0.41114097833633423 -0.7491129040718079 1.7776442766189575 
v -0.8227299451828003 -0.7492253184318542 1.7776442766189575 
v 0.822729229927063 -0.7492253184318542 1.7776442766189575 
v 0.4111402630805969 -0.7491129040718079 1.7776442766189575 
v 0.8747382760047913 -0.7504318952560425 1.869414210319519 
v 0.43714478611946106 -0.7503569722175598 1.869414210319519 
v 0.9070197939872742 -0.7517284154891968 1.9672287702560425 
v 0.4532855451107025 -0.7516834139823914 1.9672287702560425 
v 0.9177802801132202 -0.7530548572540283 2.067790985107422 
v 0.45866578817367554 -0.7530548572540283 2.067790985107422 
v 0.9070197939872742 -0.7543888688087463 2.1683530807495117 
v 0.4532855451107025 -0.7544263005256653 2.1683530807495117 
v 0.8747382760047913 -0.7556853890419006 2.266167640686035 
v 0.43714478611946106 -0.7557603120803833 2.266167640686035 
v 0.822729229927063 -0.7568919658660889 2.3573880195617676 
v 0.4111402630805969 -0.7570043802261353 2.3573880195617676 
v 0.7509925961494446 -0.7579861283302307 2.4403655529022217 
v 0.3752719461917877 -0.7581284642219543 2.4403655529022217 
v 0.6631152033805847 -0.7589378952980042 2.51345157623291 
v 0.3313332498073578 -0.7591027617454529 2.51345157623291 
v 0.00044799200259149075 -0.7581959366798401 2.4403655529022217 
v 0.00044799200259149075 -0.7591851949691772 2.51345157623291 
v -0.375272661447525 -0.7581284642219543 2.4403655529022217 
v -0.3313339650630951 -0.7591027617454529 2.51345157623291 
v -0.7509933114051819 -0.7579861283302307 2.4403655529022217 
v -0.663115918636322 -0.7589378952980042 2.51345157623291 
v 0.00044799200259149075 -0.7490604519844055 1.7776442766189575 
v -0.8227299451828003 -0.7568919658660889 2.3573880195617676 
v -0.41114097833633423 -0.7570043802261353 2.3573880195617676 
v -0.8747389912605286 -0.7556853890419006 2.266167640686035 
v 0.00044799200259149075 -0.7570568323135376 2.3573880195617676 
v 0.00044799200259149075 -0.7557902932167053 2.266167640686035 
v -0.43714550137519836 -0.7557603120803833 2.266167640686035 
v -0.9070205092430115 -0.7543888688087463 2.1683530807495117 
v -0.4532862603664398 -0.7544263005256653 2.1683530807495117 
v -0.9177809953689575 -0.7530548572540283 2.067790985107422 
v 0.00044799200259149075 -0.7544488310813904 2.1683530807495117 
v 0.00044799200259149075 -0.7530548572540283 2.067790985107422 
v -0.45866650342941284 -0.7530548572540283 2.067790985107422 
v -0.9070205092430115 -0.7517284154891968 1.9672287702560425 
v -0.4532862603664398 -0.7516834139823914 1.9672287702560425 
v -0.8747389912605286 -0.7504318952560425 1.869414210319519 
v 0.00044799200259149075 -0.7516684532165527 1.9672287702560425 
v 0.00044799200259149075 -0.7503194808959961 1.869414210319519 
v -0.43714550137519836 -0.7503569722175598 1.869414210319519 
v 0.6631152033805847 -0.7589378952980042 2.51345157623291 
v 0.5573036670684814 -0.7597022652626038 2.5733492374420166 
v 0.3313332498073578 -0.7591027617454529 2.51345157623291 
v 0.2802208960056305 -0.7599121332168579 2.575547456741333 
v 0.00044799200259149075 -0.7591851949691772 2.51345157623291 
v 0.00044799200259149075 -0.760002076625824 2.576096773147583 
v 0.22193486988544464 -0.7606090903282166 2.6304993629455566 
v 0.00044799200259149075 -0.7607290148735046 2.632697343826294 
v -0.2802216112613678 -0.7599121332168579 2.575547456741333 
v -0.22193558514118195 -0.7606090903282166 2.6304993629455566 
v -0.5573043823242188 -0.7597022652626038 2.5733492374420166 
v -0.4156245291233063 -0.7602718472480774 2.614563226699829 
v 0.4156237840652466 -0.7602718472480774 2.614563226699829 
v -0.663115918636322 -0.7589378952980042 2.51345157623291 
v -0.3313339650630951 -0.7591027617454529 2.51345157623291 
vn 3.0977209187522947e-13 -0.9999403357505798 -0.010923261754214764 
vn 3.0977209187522947e-13 -0.9999403357505798 -0.010923261754214764 
vn 3.0977209187522947e-13 -0.9999403357505798 -0.010923261754214764 
vn 3.0977209187522947e-13 -0.9999403357505798 -0.010923261754214764 
vn 3.09754338064655e-13 -0.9998830556869507 -0.0152922747656703 
vn 3.09754338064655e-13 -0.9998830556869507 -0.0152922747656703 
vn 3.0977209187522947e-13 -0.9999403357505798 -0.010923261754214764 
vn 3.09754338064655e-13 -0.9998830556869507 -0.0152922747656703 
vn 3.0977209187522947e-13 -0.9999403357505798 -0.010923261754214764 
vn 3.0977209187522947e-13 -0.9999403357505798 -0.010923261754214764 
vn 3.0977209187522947e-13 -0.9999403357505798 -0.010923261754214764 
vn 3.0977209187522947e-13 -0.9999403357505798 -0.010923261754214764 
vn 3.0977209187522947e-13 -0.9999403357505798 -0.010923261754214764 
vn 3.0977209187522947e-13 -0.9999403357505798 -0.010923261754214764 
vn 3.0977209187522947e-13 -0.9999403357505798 -0.010923261754214764 
vn 3.0977209187522947e-13 -0.9999403357505798 -0.010923261754214764 
vn 3.09754338064655e-13 -0.9998830556869507 -0.0152922747656703 
vn 3.0977209187522947e-13 -0.9999403357505798 -0.010923261754214764 
vn 3.09754338064655e-13 -0.9998830556869507 -0.0152922747656703 
vn 3.09754338064655e-13 -0.9998830556869507 -0.0152922747656703 
vn 3.09754338064655e-13 -0.9998830556869507 -0.0152922747656703 
vn 3.0977209187522947e-13 -0.9999403357505798 -0.010923261754214764 
vn 3.09754338064655e-13 -0.9998830556869507 -0.0152922747656703 
vn 3.0977209187522947e-13 -0.9999403357505798 -0.010923261754214764 
vn 3.09754338064655e-13 -0.9998830556869507 -0.0152922747656703 
vn 3.09754338064655e-13 -0.9998830556869507 -0.0152922747656703 
vn 3.09754338064655e-13 -0.9998830556869507 -0.0152922747656703 
vn 3.09754338064655e-13 -0.9998830556869507 -0.0152922747656703 
vn 3.09754338064655e-13 -0.9998830556869507 -0.0152922747656703 
vn 3.09754338064655e-13 -0.9998830556869507 -0.0152922747656703 
vn 3.09754338064655e-13 -0.9998830556869507 -0.0152922747656703 
vn 3.09754338064655e-13 -0.9998830556869507 -0.0152922747656703 
vn 3.09754338064655e-13 -0.9998830556869507 -0.0152922747656703 
vn 3.09754338064655e-13 -0.9998830556869507 -0.0152922747656703 
vn 3.09754338064655e-13 -0.9998830556869507 -0.0152922747656703 
vn 3.09754338064655e-13 -0.9998830556869507 -0.0152922747656703 
vn 3.09754338064655e-13 -0.9998830556869507 -0.0152922747656703 
vn 3.09754338064655e-13 -0.9998830556869507 -0.0152922747656703 
vn 3.09754338064655e-13 -0.9998830556869507 -0.0152922747656703 
vn 3.09754338064655e-13 -0.9998830556869507 -0.0152922747656703 
vn 3.09754338064655e-13 -0.9998830556869507 -0.0152922747656703 
vn 3.0977209187522947e-13 -0.9999403357505798 -0.010923261754214764 
vn 3.09754338064655e-13 -0.9998830556869507 -0.0152922747656703 
vn 3.0977209187522947e-13 -0.9999403357505798 -0.010923261754214764 
vn 3.0977209187522947e-13 -0.9999403357505798 -0.010923261754214764 
vn 3.09754338064655e-13 -0.9998830556869507 -0.0152922747656703 
vn 3.09754338064655e-13 -0.9998830556869507 -0.0152922747656703 
vn 3.09754338064655e-13 -0.9998830556869507 -0.0152922747656703 
vn 3.0977209187522947e-13 -0.9999403357505798 -0.010923261754214764 
vn 3.0977209187522947e-13 -0.9999403357505798 -0.010923261754214764 
vn 3.0977209187522947e-13 -0.9999403357505798 -0.010923261754214764 
vn 3.09754338064655e-13 -0.9998830556869507 -0.0152922747656703 
vn 3.09754338064655e-13 -0.9998830556869507 -0.0152922747656703 
vn 3.09754338064655e-13 -0.9998830556869507 -0.0152922747656703 
vn 3.09754338064655e-13 -0.9998830556869507 -0.0152922747656703 
vn 3.09754338064655e-13 -0.9998830556869507 -0.0152922747656703 
vn 3.09754338064655e-13 -0.9998830556869507 -0.0152922747656703 
vn 3.09754338064655e-13 -0.9998830556869507 -0.0152922747656703 
vn 3.09754338064655e-13 -0.9998830556869507 -0.0152922747656703 
vn 3.09754338064655e-13 -0.9998830556869507 -0.0152922747656703 
vn 3.09754338064655e-13 -0.9998830556869507 -0.0152922747656703 
vn 3.09754338064655e-13 -0.9998830556869507 -0.0152922747656703 
vn 3.09754338064655e-13 -0.9998830556869507 -0.0152922747656703 
vn 3.09754338064655e-13 -0.9998830556869507 -0.0152922747656703 
vn 3.09754338064655e-13 -0.9998830556869507 -0.0152922747656703 
vn 3.09754338064655e-13 -0.9998830556869507 -0.0152922747656703 
vn 3.09754338064655e-13 -0.9998830556869507 -0.0152922747656703 
vn 3.09754338064655e-13 -0.9998830556869507 -0.0152922747656703 
vn 3.09754338064655e-13 -0.9998830556869507 -0.0152922747656703 
vn 3.09754338064655e-13 -0.9998830556869507 -0.0152922747656703 
vn 3.0977209187522947e-13 -0.9999403357505798 -0.010923261754214764 
vn 3.0977209187522947e-13 -0.9999403357505798 -0.010923261754214764 
vn 3.0977209187522947e-13 -0.9999403357505798 -0.010923261754214764 
vn 3.0977209187522947e-13 -0.9999403357505798 -0.010923261754214764 
vn 3.09754338064655e-13 -0.9998830556869507 -0.0152922747656703 
vn 3.0977209187522947e-13 -0.9999403357505798 -0.010923261754214764 
vn 3.0977209187522947e-13 -0.9999403357505798 -0.010923261754214764 
vn 3.0977209187522947e-13 -0.9999403357505798 -0.010923261754214764 
vn 3.0977209187522947e-13 -0.9999403357505798 -0.010923261754214764 
vn 3.0977209187522947e-13 -0.9999403357505798 -0.010923261754214764 
vn 3.0977209187522947e-13 -0.9999403357505798 -0.010923261754214764 
vn 3.0977209187522947e-13 -0.9999403357505798 -0.010923261754214764 
vn 3.0977209187522947e-13 -0.9999403357505798 -0.010923261754214764 
vn 3.0977209187522947e-13 -0.9999403357505798 -0.010923261754214764 
vn 3.0977209187522947e-13 -0.9999403357505798 -0.010923261754214764 
vt 0.7520138621330261 0.2296610027551651 
vt 0.8107413649559021 0.2591705918312073 
vt 0.6288442015647888 0.2296610027551651 
vt 0.6582687497138977 0.2591705918312073 
vt 0.5056745409965515 0.2296610027551651 
vt 0.5056745409965515 0.2591705918312073 
vt 0.6856262683868408 0.29210808873176575 
vt 0.5056745409965515 0.29210808873176575 
vt 0.3532019257545471 0.2591705918312073 
vt 0.325844407081604 0.29210808873176575 
vt 0.20072932541370392 0.2591705918312073 
vt 0.1458926796913147 0.29210808873176575 
vt 0.8655779957771301 0.29210808873176575 
vt 0.2594568133354187 0.2296610027551651 
vt 0.382626473903656 0.2296610027551651 
vt 0.8655779957771301 0.29210808873176575 
vt 0.9132408499717712 0.3311561644077301 
vt 0.6856262683868408 0.29210808873176575 
vt 0.7094576954841614 0.3311561644077301 
vt 0.5056745409965515 0.29210808873176575 
vt 0.5057961344718933 0.3311561644077301 
vt 0.325844407081604 0.29210808873176575 
vt 0.30201295018196106 0.3311561644077301 
vt 0.1458926796913147 0.29210808873176575 
vt 0.0982297956943512 0.3311561644077301 
vt 0.28268030285835266 0.3761657476425171 
vt 0.0595644935965538 0.3761657476425171 
vt 0.951906144618988 0.3761657476425171 
vt 0.7287903428077698 0.3761657476425171 
vt 0.9803580045700073 0.42587006092071533 
vt 0.743016242980957 0.42587006092071533 
vt 0.9978668093681335 0.4788531959056854 
vt 0.7517706751823425 0.4788531959056854 
vt 1.0037031173706055 0.5334757566452026 
vt 0.7546887993812561 0.5334757566452026 
vt 0.9978668093681335 0.5880983471870422 
vt 0.7517706751823425 0.5880983471870422 
vt 0.9803580045700073 0.6410815119743347 
vt 0.743016242980957 0.6410815119743347 
vt 0.951906144618988 0.690785825252533 
vt 0.7287903428077698 0.690785825252533 
vt 0.9132408499717712 0.7357953786849976 
vt 0.7094576954841614 0.7357953786849976 
vt 0.8655779957771301 0.7752906084060669 
vt 0.6856262683868408 0.7752906084060669 
vt 0.5057961344718933 0.7357953786849976 
vt 0.5057961344718933 0.7752906084060669 
vt 0.30201295018196106 0.7357953786849976 
vt 0.325844407081604 0.7752906084060669 
vt 0.0982297956943512 0.7357953786849976 
vt 0.1458926796913147 0.7752906084060669 
vt 0.5056745409965515 0.3761657476425171 
vt 0.0595644935965538 0.690785825252533 
vt 0.28268030285835266 0.690785825252533 
vt 0.0311126671731472 0.6410815119743347 
vt 0.5057961344718933 0.690785825252533 
vt 0.5057961344718933 0.6410815119743347 
vt 0.2684544026851654 0.6410815119743347 
vt 0.01360385213047266 0.5880983471870422 
vt 0.2597000002861023 0.5880983471870422 
vt 0.007767579983919859 0.5334757566452026 
vt 0.5057961344718933 0.5880983471870422 
vt 0.5057961344718933 0.5334757566452026 
vt 0.25678184628486633 0.5334757566452026 
vt 0.01360385213047266 0.4788531959056854 
vt 0.2597000002861023 0.4788531959056854 
vt 0.0311126671731472 0.42587006092071533 
vt 0.5057961344718933 0.4788531959056854 
vt 0.5057961344718933 0.42587006092071533 
vt 0.2684544026851654 0.42587006092071533 
vt 0.8655779957771301 0.7752906084060669 
vt 0.8107413649559021 0.8091968297958374 
vt 0.6856262683868408 0.7752906084060669 
vt 0.6582687497138977 0.8091968297958374 
vt 0.5057961344718933 0.7752906084060669 
vt 0.5057961344718933 0.8091968297958374 
vt 0.6288442015647888 0.8400477766990662 
vt 0.5057961344718933 0.8400477766990662 
vt 0.3532019257545471 0.8091968297958374 
vt 0.382626473903656 0.8400477766990662 
vt 0.20072932541370392 0.8091968297958374 
vt 0.2594568133354187 0.8400477766990662 
vt 0.7520138621330261 0.8400477766990662 
vt 0.1458926796913147 0.7752906084060669 
vt 0.325844407081604 0.7752906084060669 
s on 
f 1/1/1 2/2/2 3/3/3 
f 2/2/2 4/4/4 3/3/3 
f 3/3/3 4/4/4 5/5/5 
f 4/4/4 4/4/4 5/5/5 
f 5/5/5 4/4/4 6/6/6 
f 4/4/4 7/7/7 6/6/6 
f 6/6/6 7/7/7 6/6/6 
f 7/7/7 8/8/8 6/6/6 
f 6/6/6 8/8/8 9/9/9 
f 8/8/8 10/10/10 9/9/9 
f 9/9/9 10/10/10 11/11/11 
f 10/10/10 12/12/12 11/11/11 
f 11/11/11 12/12/12 12/12/12 
f 12/12/12 7/7/7 12/12/12 
f 12/12/12 7/7/7 7/7/7 
f 7/7/7 4/4/4 7/7/7 
f 7/7/7 4/4/4 13/13/13 
f 4/4/4 2/2/2 13/13/13 
f 13/13/13 2/2/2 2/2/2 
f 2/2/2 11/11/11 2/2/2 
f 2/2/2 11/11/11 11/11/11 
f 11/11/11 14/14/14 11/11/11 
f 11/11/11 14/14/14 9/9/9 
f 14/14/14 15/15/15 9/9/9 
f 9/9/9 15/15/15 6/6/6 
f 15/15/15 5/5/5 6/6/6 
f 6/6/6 5/5/5 5/5/5 
f 5/5/5 16/16/16 5/5/5 
f 5/5/5 16/16/16 16/16/16 
f 16/16/16 17/17/17 16/16/16 
f 16/16/16 17/17/17 18/18/18 
f 17/17/17 19/19/19 18/18/18 
f 18/18/18 19/19/19 20/20/20 
f 19/19/19 21/21/21 20/20/20 
f 20/20/20 21/21/21 22/22/22 
f 21/21/21 23/23/23 22/22/22 
f 22/22/22 23/23/23 24/24/24 
f 23/23/23 23/23/23 24/24/24 
f 24/24/24 23/23/23 25/25/25 
f 23/23/23 26/26/26 25/25/25 
f 25/25/25 26/26/26 27/27/27 
f 26/26/26 27/27/27 27/27/27 
f 27/27/27 27/27/27 17/17/17 
f 27/27/27 17/17/17 17/17/17 
f 17/17/17 17/17/17 19/19/19 
f 17/17/17 28/28/28 19/19/19 
f 19/19/19 28/28/28 29/29/29 
f 28/28/28 30/30/30 29/29/29 
f 29/29/29 30/30/30 31/31/31 
f 30/30/30 32/32/32 31/31/31 
f 31/31/31 32/32/32 33/33/33 
f 32/32/32 34/34/34 33/33/33 
f 33/33/33 34/34/34 35/35/35 
f 34/34/34 36/36/36 35/35/35 
f 35/35/35 36/36/36 37/37/37 
f 36/36/36 38/38/38 37/37/37 
f 37/37/37 38/38/38 39/39/39 
f 38/38/38 40/40/40 39/39/39 
f 39/39/39 40/40/40 41/41/41 
f 40/40/40 42/42/42 41/41/41 
f 41/41/41 42/42/42 43/43/43 
f 42/42/42 44/44/44 43/43/43 
f 43/43/43 44/44/44 43/43/43 
f 44/44/44 45/45/45 43/43/43 
f 43/43/43 45/45/45 46/46/46 
f 45/45/45 47/47/47 46/46/46 
f 46/46/46 47/47/47 48/48/48 
f 47/47/47 49/49/49 48/48/48 
f 48/48/48 49/49/49 50/50/50 
f 49/49/49 51/51/51 50/50/50 
f 50/50/50 51/51/51 51/51/51 
f 51/51/51 19/19/19 51/51/51 
f 51/51/51 19/19/19 19/19/19 
f 19/19/19 29/29/29 19/19/19 
f 19/19/19 29/29/29 21/21/21 
f 29/29/29 52/52/52 21/21/21 
f 21/21/21 52/52/52 23/23/23 
f 52/52/52 26/26/26 23/23/23 
f 23/23/23 26/26/26 26/26/26 
f 26/26/26 31/31/31 26/26/26 
f 26/26/26 31/31/31 31/31/31 
f 31/31/31 52/52/52 31/31/31 
f 31/31/31 52/52/52 29/29/29 
f 52/52/52 29/29/29 29/29/29 
f 29/29/29 29/29/29 50/50/50 
f 29/29/29 50/50/50 50/50/50 
f 50/50/50 50/50/50 48/48/48 
f 50/50/50 53/53/53 48/48/48 
f 48/48/48 53/53/53 54/54/54 
f 53/53/53 55/55/55 54/54/54 
f 54/54/54 55/55/55 55/55/55 
f 55/55/55 48/48/48 55/55/55 
f 55/55/55 48/48/48 48/48/48 
f 48/48/48 54/54/54 48/48/48 
f 48/48/48 54/54/54 46/46/46 
f 54/54/54 56/56/56 46/46/46 
f 46/46/46 56/56/56 43/43/43 
f 56/56/56 56/56/56 43/43/43 
f 43/43/43 56/56/56 41/41/41 
f 56/56/56 57/57/57 41/41/41 
f 41/41/41 57/57/57 39/39/39 
f 57/57/57 39/39/39 39/39/39 
f 39/39/39 39/39/39 57/57/57 
f 39/39/39 57/57/57 57/57/57 
f 57/57/57 57/57/57 58/58/58 
f 57/57/57 56/56/56 58/58/58 
f 58/58/58 56/56/56 58/58/58 
f 56/56/56 54/54/54 58/58/58 
f 58/58/58 54/54/54 58/58/58 
f 54/54/54 55/55/55 58/58/58 
f 58/58/58 55/55/55 58/58/58 
f 55/55/55 59/59/59 58/58/58 
f 58/58/58 59/59/59 60/60/60 
f 59/59/59 61/61/61 60/60/60 
f 60/60/60 61/61/61 61/61/61 
f 61/61/61 58/58/58 61/61/61 
f 61/61/61 58/58/58 58/58/58 
f 58/58/58 60/60/60 58/58/58 
f 58/58/58 60/60/60 57/57/57 
f 60/60/60 62/62/62 57/57/57 
f 57/57/57 62/62/62 39/39/39 
f 62/62/62 62/62/62 39/39/39 
f 39/39/39 62/62/62 37/37/37 
f 62/62/62 63/63/63 37/37/37 
f 37/37/37 63/63/63 35/35/35 
f 63/63/63 35/35/35 35/35/35 
f 35/35/35 35/35/35 63/63/63 
f 35/35/35 63/63/63 63/63/63 
f 63/63/63 63/63/63 64/64/64 
f 63/63/63 62/62/62 64/64/64 
f 64/64/64 62/62/62 64/64/64 
f 62/62/62 60/60/60 64/64/64 
f 64/64/64 60/60/60 64/64/64 
f 60/60/60 61/61/61 64/64/64 
f 64/64/64 61/61/61 64/64/64 
f 61/61/61 65/65/65 64/64/64 
f 64/64/64 65/65/65 66/66/66 
f 65/65/65 67/67/67 66/66/66 
f 66/66/66 67/67/67 67/67/67 
f 67/67/67 64/64/64 67/67/67 
f 67/67/67 64/64/64 64/64/64 
f 64/64/64 66/66/66 64/64/64 
f 64/64/64 66/66/66 63/63/63 
f 66/66/66 68/68/68 63/63/63 
f 63/63/63 68/68/68 35/35/35 
f 68/68/68 68/68/68 35/35/35 
f 35/35/35 68/68/68 33/33/33 
f 68/68/68 69/69/69 33/33/33 
f 33/33/33 69/69/69 31/31/31 
f 69/69/69 69/69/69 31/31/31 
f 31/31/31 69/69/69 52/52/52 
f 69/69/69 69/69/69 52/52/52 
f 52/52/52 69/69/69 26/26/26 
f 69/69/69 70/70/70 26/26/26 
f 26/26/26 70/70/70 27/27/27 
f 70/70/70 70/70/70 27/27/27 
f 27/27/27 70/70/70 67/67/67 
f 70/70/70 70/70/70 67/67/67 
f 67/67/67 70/70/70 66/66/66 
f 70/70/70 70/70/70 66/66/66 
f 66/66/66 70/70/70 68/68/68 
f 70/70/70 69/69/69 68/68/68 
f 68/68/68 69/69/69 69/69/69 
f 69/69/69 71/71/71 69/69/69 
f 69/69/69 71/71/71 71/71/71 
f 71/71/71 72/72/72 71/71/71 
f 71/71/71 72/72/72 73/73/73 
f 72/72/72 74/74/74 73/73/73 
f 73/73/73 74/74/74 75/75/75 
f 74/74/74 74/74/74 75/75/75 
f 75/75/75 74/74/74 76/76/76 
f 74/74/74 77/77/77 76/76/76 
f 76/76/76 77/77/77 76/76/76 
f 77/77/77 78/78/78 76/76/76 
f 76/76/76 78/78/78 79/79/79 
f 78/78/78 80/80/80 79/79/79 
f 79/79/79 80/80/80 81/81/81 
f 80/80/80 82/82/82 81/81/81 
f 81/81/81 82/82/82 82/82/82 
f 82/82/82 77/77/77 82/82/82 
f 82/82/82 77/77/77 77/77/77 
f 77/77/77 74/74/74 77/77/77 
f 77/77/77 74/74/74 83/83/83 
f 74/74/74 72/72/72 83/83/83 
f 83/83/83 72/72/72 72/72/72 
f 72/72/72 81/81/81 72/72/72 
f 72/72/72 81/81/81 81/81/81 
f 81/81/81 84/84/84 81/81/81 
f 81/81/81 84/84/84 79/79/79 
f 84/84/84 85/85/85 79/79/79 
f 79/79/79 85/85/85 76/76/76 
f 85/85/85 75/75/75 76/76/76 

